<?xml version="1.0" encoding="utf-8"?>
<!-- Generator: Adobe Illustrator 27.8.1, SVG Export Plug-In . SVG Version: 6.00 Build 0)  -->
<svg version="1.1" id="Layer_1" xmlns="http://www.w3.org/2000/svg" xmlns:xlink="http://www.w3.org/1999/xlink" x="0px" y="0px"
	 viewBox="0 0 31.9 32" style="enable-background:new 0 0 31.9 32;" xml:space="preserve">
<style type="text/css">
	.st0{fill:#F47B23;}
	.st1{fill:#2758A6;}
	.st2{fill:#FFFFFF;}
	.st3{fill:#CED72A;}
	.st4{fill:#2F67AB;}
</style>
<g>
	<g>
		<path class="st0" d="M11.1,17.5c0,0-2,5.1,5.2,5.1c6.3,0,4.8-5.1,4.8-5.1s6,13-5.1,13C4.8,30.4,11.1,17.5,11.1,17.5z"/>
		<g>
			<path class="st1" d="M15.9,29.3c-1.9,0-3.3-0.6-4.1-1.7c-1.2-1.6-1-4-0.8-5.1c0.1,0.1,0.2,0.3,0.3,0.4c0.6,0.6,1.9,1.3,4.8,1.3
				c3.4,0,4.6-1,5.1-1.7c0.1,1.1,0.1,3.6-1.2,5.2C19.1,28.7,17.7,29.3,15.9,29.3z"/>
			<path class="st2" d="M11.1,22.9C11.1,22.9,11.1,23,11.1,22.9c0.9,1,2.6,1.4,5,1.4c2.9,0,4.3-0.7,4.9-1.4c0.1,1.2-0.1,3.2-1.2,4.6
				c-0.9,1-2.2,1.6-3.9,1.6c-1.8,0-3.2-0.5-4-1.6C10.9,26.1,10.9,24.1,11.1,22.9 M21.3,21.8c0,0-0.2,2.2-5.2,2.2
				c-5.2,0-5.2-2.2-5.2-2.2s-2.1,7.7,5,7.7C22.7,29.5,21.3,21.8,21.3,21.8L21.3,21.8z"/>
		</g>
		<circle class="st3" cx="16" cy="27.4" r="1.1"/>
		<path class="st1" d="M9.4,24.7c0,0-0.5,3.4,2.4,5.4c1.5,1,4.3,2,4.3,2s2.2-0.7,4.2-1.8c3-1.7,2.4-5.7,2.4-5.7s0.5,5.9-6.7,5.9
			C8.8,30.4,9.4,24.7,9.4,24.7z"/>
	</g>
	<g>
		<path class="st0" d="M17.4,20.9c0,0,5.1,2,5.1-5.2c0-6.3-5.1-4.8-5.1-4.8s13-6,13,5.1C30.4,27.2,17.4,20.9,17.4,20.9z"/>
		<g>
			<path class="st1" d="M24.2,21.2c-0.7,0-1.3-0.1-1.8-0.2c0.7-0.4,1.7-1.6,1.7-5.2c0-3.4-1-4.6-1.7-5.1c0.3,0,0.6,0,0.9,0
				c2.2,0,5.9,0.7,5.9,5.3C29.2,20.4,26.5,21.2,24.2,21.2z"/>
			<path class="st2" d="M23.3,11c4.7,0,5.7,2.8,5.7,5.2c0,4.1-2.7,4.9-4.9,4.9c-0.5,0-0.9,0-1.3-0.1c0.1-0.1,0.2-0.2,0.3-0.3
				c0.8-0.9,1.1-2.5,1.1-4.7c0-2.9-0.7-4.3-1.4-4.9C23,11,23.2,11,23.3,11 M23.3,10.6c-0.9,0-1.6,0.1-1.6,0.1s2.2,0.2,2.2,5.2
				c0,5.1-2.1,5.2-2.2,5.2c0,0,0,0,0,0s1.1,0.3,2.4,0.3c2.2,0,5.2-0.8,5.2-5.3C29.4,11.3,25.6,10.6,23.3,10.6L23.3,10.6z"/>
		</g>
		<circle class="st3" cx="27.3" cy="16" r="1.1"/>
		<path class="st1" d="M24.7,22.7c0,0,3.4,0.5,5.4-2.4c1-1.5,2-4.3,2-4.3s-0.7-2.2-1.8-4.2c-1.7-3-5.7-2.4-5.7-2.4s5.9-0.5,5.9,6.7
			C30.4,23.3,24.7,22.7,24.7,22.7z"/>
	</g>
	<g>
		<path class="st0" d="M20.9,14.6c0,0,2-5.1-5.2-5.1c-6.3,0-4.8,5.1-4.8,5.1s-6-13,5.1-13C27.2,1.7,20.9,14.6,20.9,14.6z"/>
		<g>
			<path class="st1" d="M21,9.6c-0.1-0.1-0.2-0.3-0.3-0.4C20.2,8.7,18.8,8,15.9,8c-3.4,0-4.6,1-5.1,1.7c-0.1-1.1-0.1-3.6,1.2-5.2
				c0.9-1.1,2.3-1.6,4.1-1.6c1.9,0,3.3,0.6,4.1,1.7C21.5,6.1,21.2,8.5,21,9.6z"/>
			<path class="st2" d="M16.1,3c1.8,0,3.2,0.5,4,1.6c1.1,1.4,1,3.4,0.8,4.6c0,0,0,0-0.1-0.1c-0.9-0.9-2.5-1.3-5-1.3
				c-2.9,0-4.3,0.7-4.9,1.4C10.9,8,11,6,12.2,4.6C13,3.5,14.4,3,16.1,3 M16.1,2.7c-6.8,0-5.4,7.7-5.4,7.7s0.2-2.2,5.2-2.2
				c0,0,0,0,0,0c5.2,0,5.2,2.2,5.2,2.2S23.2,2.7,16.1,2.7L16.1,2.7z"/>
		</g>
		<circle class="st3" cx="16" cy="4.8" r="1.1"/>
		<path class="st1" d="M22.6,7.4c0,0,0.5-3.4-2.4-5.4c-1.5-1-4.3-2-4.3-2s-2.2,0.7-4.2,1.8c-3,1.7-2.4,5.7-2.4,5.7S8.9,1.7,16,1.7
			C23.2,1.7,22.6,7.4,22.6,7.4z"/>
	</g>
	<g>
		<path class="st0" d="M14.6,11.2c0,0-5.1-2-5.1,5.2c0,6.3,5.1,4.8,5.1,4.8s-13,6-13-5.1C1.6,4.9,14.6,11.2,14.6,11.2z"/>
		<g>
			<path class="st1" d="M8.7,21.3c-2.2,0-5.9-0.7-5.9-5.3c0-4.2,2.8-5.1,5.1-5.1c0.7,0,1.3,0.1,1.7,0.2c-0.2,0.1-0.4,0.3-0.6,0.5
				c-0.7,0.9-1.1,2.5-1.1,4.6c0,3.4,1,4.6,1.7,5.1C9.3,21.3,9,21.3,8.7,21.3z"/>
			<path class="st2" d="M7.9,11L7.9,11c0.5,0,0.9,0,1.3,0.1c-0.7,0.6-1.4,2-1.4,5c0,2.9,0.7,4.3,1.4,4.9c-0.1,0-0.3,0-0.5,0
				C4,21.1,3,18.3,3,16C3,11.9,5.6,11,7.9,11 M7.9,10.7c-2.2,0-5.2,0.8-5.2,5.3c0,4.8,3.8,5.5,6.1,5.5c0.9,0,1.6-0.1,1.6-0.1
				s-2.2-0.2-2.2-5.2c0-5.1,2.1-5.2,2.2-5.2c0,0,0,0,0,0S9.2,10.7,7.9,10.7L7.9,10.7z"/>
		</g>
		<circle class="st3" cx="4.7" cy="16.1" r="1.1"/>
		<path class="st1" d="M7.3,9.4c0,0-3.4-0.5-5.4,2.4c-1,1.5-2,4.3-2,4.3s0.7,2.2,1.8,4.2c1.7,3,5.7,2.4,5.7,2.4S1.6,23.2,1.6,16
			C1.6,8.8,7.3,9.4,7.3,9.4z"/>
	</g>
</g>
<g>
	<g>
		<path class="st0" d="M13.4,16c0.4,0.4,0.9,0.7,1.4,1.1c0,0,0,0,0,0c0,0,0,0,0,0c-0.1-0.2-0.1-0.3-0.2-0.5
			c-0.1-0.2-0.1-0.4-0.2-0.6c-0.1-0.4-0.1-0.8-0.2-1.2c0-0.5,0.1-0.9,0.1-0.9c0.1-0.7,0.3-1,0.5-1.5c0.1-0.4,0.3-0.9-0.2-1.5
			c-0.4-0.5-1.2-0.6-1.7-0.4c-0.1,0-0.7,0.2-1,0.8c-0.1,0.2-0.2,0.5-0.1,0.9c0.1,0.5,0.3,1.8,1,2.9 M13.4,11.2
			c0.3,0,0.6,0.1,0.8,0.4c0.3,0.3,0.4,0.6,0.3,1c-0.1,0.2-0.1,0.5-0.2,0.7c-0.1,0.3-0.2,0.6-0.2,1c-0.1,0.5-0.1,1.1,0,1.6
			c0,0.1,0.1,0.2,0.1,0.3c0,0,0,0.1,0,0.1c0,0-0.1,0-0.1,0c-0.1-0.1-0.1-0.1-0.2-0.2c-0.3-0.3-0.6-0.7-0.9-1.1
			c-0.1-0.2-0.2-0.4-0.3-0.6c-0.1-0.3-0.2-0.6-0.3-0.9c-0.2-0.5-0.3-1.1,0-1.6C12.5,11.5,13,11.1,13.4,11.2z"/>
		<path class="st2" d="M13.4,11.1c-0.4,0-0.9,0.3-1,0.7c-0.3,0.6-0.2,1.1,0,1.6c0.1,0.3,0.2,0.6,0.3,0.9c0.1,0.2,0.2,0.4,0.3,0.6
			c0.2,0.4,0.5,0.8,0.9,1.1c0.1,0.1,0.1,0.2,0.2,0.2c0,0,0,0.1,0.1,0c0,0,0-0.1,0-0.1c0-0.1-0.1-0.2-0.1-0.3c-0.1-0.5-0.1-1.1,0-1.6
			c0-0.3,0.2-0.6,0.2-1c0.1-0.2,0.1-0.5,0.2-0.7c0.1-0.4,0.1-0.8-0.2-1.1C14,11.2,13.7,11.2,13.4,11.1z M14,16.1
			C13.9,16.1,13.9,16,14,16.1c-0.2-0.2-0.3-0.4-0.5-0.5c-0.3-0.3-0.5-0.7-0.7-1.1c-0.2-0.4-0.3-0.7-0.4-1.2c0-0.2-0.1-0.5-0.1-0.7
			c0-0.2,0.1-0.4,0.1-0.6c0-0.1,0.1-0.3,0.2-0.4c0.3-0.3,0.7-0.3,1-0.2c0.2,0.1,0.3,0.2,0.5,0.3c0.1,0.1,0.2,0.3,0.2,0.4
			c0,0.3-0.1,0.7-0.2,1c-0.1,0.4-0.2,0.8-0.3,1.2C13.8,15,13.8,15.6,14,16.1z"/>
		<path class="st4" d="M13.7,11.5c0,0-0.4-0.1-0.7,0c-0.1,0-0.2,0.1-0.3,0.2c-0.1,0.1-0.2,0.2-0.2,0.4c-0.1,0.2-0.1,0.4-0.1,0.6
			c0,0.2,0,0.5,0.1,0.7c0.1,0.4,0.2,0.8,0.4,1.2c0.2,0.4,0.4,0.7,0.7,1.1c0.1,0.1,0.2,0.3,0.4,0.4c0,0,0.1,0.1,0.1,0.1
			c-0.2-0.5-0.2-1.1-0.1-1.6c0.1-0.4,0.1-0.8,0.3-1.2c0-0.1,0.1-0.3,0.2-0.6c0-0.2,0-0.2,0-0.3C14.3,12,14.2,11.6,13.7,11.5z
			 M13.8,12.6c0,0.2-0.1,0.4-0.3,0.5c-0.2,0.1-0.4,0.1-0.5-0.1c-0.1-0.2-0.1-0.4-0.1-0.7c0.1-0.2,0.3-0.4,0.5-0.3
			c0.1,0,0.2,0,0.2,0.1C13.8,12.2,13.9,12.4,13.8,12.6z"/>
		<path class="st3" d="M13.8,12.6c0-0.2,0-0.4-0.1-0.5C13.6,12,13.4,12,13.3,12c-0.2,0-0.3,0.2-0.4,0.3c-0.1,0.2-0.1,0.5,0.1,0.7
			c0.1,0.2,0.4,0.3,0.6,0.1C13.7,13,13.8,12.8,13.8,12.6z"/>
	</g>
	<g>
		<path class="st0" d="M15.4,18.4c0.5-0.3,1-0.7,1.5-1c0,0,0,0,0,0c0,0,0,0,0,0c-0.2,0-0.3,0-0.5,0c-0.2,0-0.4,0-0.6,0
			c-0.4,0-0.8-0.1-1.2-0.2c-0.5-0.1-0.8-0.3-0.9-0.4c-0.6-0.3-0.8-0.6-1.3-0.9c-0.4-0.2-0.8-0.5-1.5-0.2c-0.6,0.2-0.9,0.9-0.9,1.5
			c0,0.1,0,0.7,0.5,1.2c0.2,0.1,0.4,0.3,0.8,0.4c0.5,0.1,1.8,0.3,3.1-0.1 M10.8,16.9c0.1-0.3,0.3-0.5,0.6-0.7
			c0.4-0.2,0.7-0.2,1.1,0.1c0.2,0.1,0.4,0.3,0.6,0.4c0.3,0.2,0.5,0.4,0.8,0.5c0.5,0.2,1,0.4,1.5,0.5c0.1,0,0.2,0,0.3,0
			c0,0,0.1,0,0.1,0c0,0,0,0.1-0.1,0.1c-0.1,0-0.2,0.1-0.3,0.1c-0.4,0.2-0.9,0.4-1.3,0.5c-0.2,0-0.4,0.1-0.6,0.1c-0.3,0-0.6,0-1,0
			c-0.6,0-1.1-0.1-1.6-0.5C10.8,17.8,10.7,17.3,10.8,16.9z"/>
		<path class="st2" d="M10.8,16.9c-0.2,0.4,0,0.9,0.3,1.2c0.4,0.4,1,0.5,1.6,0.5c0.3,0,0.6,0,1,0c0.2,0,0.4-0.1,0.6-0.1
			c0.5-0.1,0.9-0.3,1.3-0.5c0.1,0,0.2-0.1,0.3-0.1c0,0,0.1,0,0.1-0.1c0,0-0.1,0-0.1,0c-0.1,0-0.2,0-0.3,0c-0.5-0.1-1-0.2-1.5-0.5
			c-0.3-0.1-0.6-0.4-0.8-0.5c-0.2-0.1-0.4-0.3-0.6-0.4c-0.3-0.2-0.7-0.3-1.1-0.1C11.1,16.3,10.9,16.6,10.8,16.9z M15.7,17.8
			c0,0-0.1,0-0.1,0.1c-0.2,0.1-0.4,0.1-0.5,0.2c-0.4,0.2-0.8,0.3-1.2,0.3c-0.4,0-0.8,0.1-1.2,0c-0.2,0-0.5,0-0.7-0.1
			c-0.2-0.1-0.4-0.2-0.6-0.3c-0.1-0.1-0.2-0.2-0.3-0.3c-0.2-0.4-0.1-0.7,0.2-1c0.1-0.2,0.3-0.3,0.5-0.3c0.2-0.1,0.3-0.1,0.5,0
			c0.3,0.1,0.6,0.3,0.9,0.5c0.3,0.2,0.7,0.5,1.1,0.6C14.6,17.7,15.1,17.8,15.7,17.8z"/>
		<path class="st4" d="M11.2,16.7c0,0-0.3,0.3-0.2,0.7c0,0.1,0,0.2,0.1,0.3c0.1,0.1,0.2,0.2,0.3,0.3c0.2,0.1,0.4,0.2,0.6,0.3
			c0.2,0.1,0.4,0.1,0.7,0.1c0.4,0.1,0.8,0,1.2,0c0.4,0,0.8-0.2,1.2-0.3c0.2-0.1,0.4-0.1,0.5-0.2c0,0,0.1,0,0.1-0.1
			c-0.6,0-1.1-0.2-1.6-0.4c-0.4-0.2-0.7-0.4-1.1-0.6c-0.1,0-0.2-0.2-0.5-0.3c-0.1-0.1-0.2-0.1-0.3-0.1
			C11.9,16.2,11.5,16.2,11.2,16.7z M12.3,16.9c0.2,0.1,0.3,0.2,0.4,0.4c0.1,0.2,0,0.4-0.3,0.5c-0.2,0.1-0.5,0-0.6-0.1
			c-0.2-0.1-0.2-0.4-0.2-0.6c0-0.1,0.1-0.2,0.2-0.2C12,16.8,12.2,16.8,12.3,16.9z"/>
		<path class="st3" d="M12.4,16.9c-0.2-0.1-0.3-0.1-0.5-0.1c-0.1,0.1-0.2,0.2-0.3,0.3c0,0.2,0,0.4,0.2,0.5c0.2,0.2,0.4,0.2,0.6,0.1
			c0.2,0,0.4-0.3,0.3-0.5C12.7,17.1,12.6,17,12.4,16.9z"/>
	</g>
	<g>
		<path class="st0" d="M18.3,17.2c-0.1-0.6-0.3-1.1-0.5-1.7c0,0,0,0,0,0c0,0,0,0,0,0c0,0.2-0.1,0.3-0.1,0.5
			c-0.1,0.2-0.1,0.4-0.2,0.6c-0.1,0.4-0.4,0.7-0.6,1.1c-0.3,0.4-0.6,0.7-0.6,0.7c-0.5,0.5-0.8,0.6-1.2,0.9c-0.3,0.3-0.7,0.6-0.7,1.3
			c0,0.6,0.6,1.2,1.1,1.3c0.1,0,0.7,0.3,1.3-0.1c0.2-0.1,0.4-0.3,0.6-0.7c0.3-0.5,0.8-1.6,0.9-2.9 M15.5,21.1
			c-0.2-0.2-0.4-0.5-0.4-0.8c0-0.4,0.1-0.7,0.4-1c0.2-0.2,0.4-0.3,0.6-0.5c0.2-0.2,0.5-0.4,0.8-0.6c0.4-0.4,0.7-0.8,0.9-1.3
			c0-0.1,0.1-0.2,0.1-0.3c0,0,0-0.1,0.1-0.1c0,0,0,0.1,0,0.1c0,0.1,0,0.2,0,0.3c0.1,0.5,0.1,0.9,0,1.4c0,0.2,0,0.4-0.1,0.6
			c-0.1,0.3-0.2,0.6-0.3,0.9c-0.2,0.5-0.4,1-1,1.3C16.3,21.4,15.8,21.3,15.5,21.1z"/>
		<path class="st2" d="M15.5,21.1c0.3,0.3,0.9,0.2,1.2,0c0.5-0.3,0.8-0.8,1-1.3c0.1-0.3,0.2-0.6,0.3-0.9c0-0.2,0.1-0.4,0.1-0.6
			c0.1-0.5,0-0.9,0-1.4c0-0.1,0-0.2,0-0.3c0,0,0-0.1,0-0.1c0,0-0.1,0-0.1,0.1c0,0.1-0.1,0.2-0.1,0.3c-0.2,0.5-0.5,0.9-0.9,1.3
			c-0.2,0.2-0.5,0.4-0.8,0.6c-0.2,0.2-0.4,0.3-0.6,0.5c-0.3,0.3-0.5,0.6-0.5,1C15,20.6,15.2,20.9,15.5,21.1z M17.9,16.7
			c0,0,0,0.1,0,0.1c0,0.2,0,0.4,0,0.6c0,0.4,0,0.9-0.1,1.3c-0.1,0.4-0.2,0.8-0.4,1.2c-0.1,0.2-0.2,0.4-0.3,0.6
			c-0.1,0.2-0.3,0.3-0.5,0.4c-0.1,0.1-0.3,0.2-0.4,0.2c-0.4,0-0.7-0.2-0.9-0.5c-0.1-0.2-0.2-0.4-0.2-0.6c0-0.2,0-0.3,0.1-0.5
			c0.2-0.3,0.5-0.5,0.8-0.7c0.3-0.3,0.6-0.5,0.9-0.8C17.4,17.7,17.7,17.3,17.9,16.7z"/>
		<path class="st4" d="M15.4,20.6c0,0,0.2,0.3,0.6,0.4c0.1,0,0.2,0,0.3,0c0.2,0,0.3-0.1,0.4-0.2c0.2-0.1,0.3-0.3,0.5-0.4
			c0.2-0.2,0.2-0.4,0.3-0.6c0.2-0.4,0.3-0.8,0.4-1.2c0.1-0.4,0.1-0.8,0.1-1.3c0-0.2,0-0.4,0-0.6c0,0,0-0.1,0-0.1
			c-0.2,0.5-0.5,1-0.9,1.4c-0.3,0.3-0.6,0.6-0.9,0.8c-0.1,0-0.3,0.2-0.5,0.4c-0.1,0.1-0.2,0.2-0.2,0.2
			C15.2,19.8,15.1,20.2,15.4,20.6z M16,19.6c0.1-0.2,0.3-0.2,0.5-0.2c0.2,0,0.4,0.2,0.4,0.4c0,0.2-0.1,0.4-0.3,0.6
			c-0.2,0.1-0.5,0.1-0.6,0c-0.1-0.1-0.1-0.1-0.1-0.2C15.8,20,15.8,19.8,16,19.6z"/>
		<path class="st3" d="M16,19.6c-0.1,0.1-0.2,0.3-0.2,0.5c0,0.1,0.1,0.3,0.2,0.3c0.2,0.1,0.4,0.1,0.5,0c0.2-0.1,0.3-0.3,0.3-0.6
			c0-0.2-0.1-0.4-0.4-0.4C16.3,19.4,16.1,19.5,16,19.6z"/>
	</g>
	<g>
		<path class="st0" d="M18.1,14c-0.6-0.1-1.2,0-1.8-0.1c0,0,0,0,0,0c0,0,0,0,0,0c0.1,0.1,0.3,0.2,0.4,0.3c0.2,0.1,0.3,0.2,0.5,0.4
			c0.3,0.3,0.6,0.6,0.8,0.9c0.3,0.4,0.4,0.7,0.5,0.8c0.3,0.6,0.3,1,0.5,1.5c0.2,0.4,0.3,0.9,1,1.1c0.6,0.2,1.3-0.2,1.6-0.7
			c0-0.1,0.5-0.6,0.3-1.2c-0.1-0.2-0.1-0.5-0.4-0.8c-0.4-0.4-1.3-1.3-2.5-1.8 M20.9,17.9c-0.3,0.2-0.6,0.2-0.9,0.2
			c-0.4-0.1-0.7-0.3-0.8-0.7c-0.1-0.2-0.2-0.5-0.3-0.7c-0.1-0.3-0.2-0.6-0.4-0.9c-0.3-0.5-0.6-0.9-1-1.3c-0.1-0.1-0.2-0.1-0.2-0.2
			c0,0-0.1-0.1,0-0.1c0,0,0.1,0,0.1,0c0.1,0,0.2,0,0.3,0.1c0.5,0.1,0.9,0.2,1.4,0.4c0.2,0.1,0.4,0.2,0.6,0.3
			c0.3,0.2,0.5,0.3,0.8,0.5c0.5,0.3,0.8,0.7,1,1.3C21.4,17.2,21.2,17.7,20.9,17.9z"/>
		<path class="st2" d="M20.9,18c0.3-0.2,0.5-0.8,0.4-1.2c-0.1-0.6-0.5-1-1-1.3c-0.3-0.2-0.5-0.4-0.8-0.5c-0.2-0.1-0.4-0.2-0.6-0.3
			c-0.4-0.2-0.9-0.3-1.4-0.4c-0.1,0-0.2,0-0.3-0.1c0,0-0.1,0-0.1,0c0,0,0,0.1,0,0.1c0.1,0.1,0.2,0.1,0.2,0.2c0.4,0.4,0.7,0.8,1,1.3
			c0.2,0.3,0.2,0.6,0.4,0.9c0.1,0.2,0.2,0.5,0.3,0.7c0.1,0.4,0.4,0.7,0.8,0.8C20.3,18.3,20.7,18.1,20.9,18z M17.5,14.3
			c0,0,0.1,0,0.1,0c0.2,0,0.4,0.1,0.5,0.1c0.4,0.1,0.8,0.2,1.2,0.5c0.4,0.2,0.7,0.4,1,0.7c0.2,0.2,0.4,0.3,0.5,0.5
			c0.1,0.2,0.2,0.4,0.3,0.6c0,0.1,0.1,0.3,0,0.4c-0.1,0.4-0.4,0.6-0.7,0.7c-0.2,0.1-0.4,0-0.6,0c-0.2,0-0.3-0.1-0.4-0.3
			c-0.2-0.3-0.3-0.6-0.4-0.9c-0.1-0.4-0.3-0.8-0.5-1.1C18.3,15.1,18,14.6,17.5,14.3z"/>
		<path class="st4" d="M20.4,17.9c0,0,0.4-0.1,0.6-0.4c0,0,0.1-0.2,0.1-0.3c0-0.1,0-0.3,0-0.4c-0.1-0.2-0.2-0.4-0.3-0.6
			c-0.1-0.2-0.3-0.3-0.5-0.5c-0.3-0.3-0.7-0.5-1-0.7c-0.4-0.2-0.8-0.4-1.2-0.5c-0.2,0-0.4-0.1-0.5-0.1c0,0-0.1,0-0.1,0
			c0.5,0.3,0.8,0.8,1,1.2c0.2,0.4,0.4,0.7,0.5,1.1c0,0.1,0.1,0.3,0.2,0.6c0.1,0.2,0.1,0.2,0.2,0.3C19.6,17.8,19.9,18.1,20.4,17.9z
			 M19.7,17.1c-0.1-0.2-0.1-0.4,0-0.6c0.1-0.2,0.3-0.3,0.5-0.2c0.2,0.1,0.4,0.3,0.4,0.5c0.1,0.2,0,0.5-0.2,0.6c-0.1,0-0.2,0.1-0.2,0
			C19.9,17.3,19.8,17.2,19.7,17.1z"/>
		<path class="st3" d="M19.7,17c0.1,0.2,0.2,0.3,0.4,0.4c0.1,0,0.3,0,0.4-0.1c0.2-0.2,0.2-0.3,0.1-0.5c-0.1-0.2-0.2-0.4-0.4-0.5
			c-0.2-0.1-0.4,0-0.5,0.2C19.5,16.7,19.6,16.8,19.7,17z"/>
	</g>
	<g>
		<path class="st0" d="M15,13.3c-0.3,0.5-0.4,1.1-0.6,1.6c0,0,0,0,0,0c0,0,0,0,0,0c0.1-0.1,0.2-0.2,0.4-0.3c0.2-0.1,0.3-0.2,0.5-0.3
			c0.3-0.2,0.7-0.4,1.1-0.5c0.5-0.2,0.8-0.2,0.9-0.2c0.7-0.1,1,0,1.6,0c0.5,0,0.9,0,1.3-0.7c0.3-0.5,0.2-1.3-0.1-1.8
			c0-0.1-0.4-0.6-1.1-0.7c-0.2,0-0.5,0-0.9,0.2c-0.5,0.2-1.6,0.8-2.5,1.9 M19.6,11.8c0.1,0.3,0.1,0.6-0.1,0.9
			c-0.2,0.3-0.5,0.6-0.9,0.6c-0.3,0-0.5,0-0.8,0.1c-0.3,0-0.7,0-1,0.1c-0.5,0.1-1,0.2-1.5,0.5c-0.1,0.1-0.2,0.1-0.3,0.2
			c0,0-0.1,0-0.1,0c0,0,0-0.1,0-0.1c0-0.1,0.1-0.2,0.1-0.3c0.2-0.4,0.5-0.8,0.8-1.2c0.1-0.2,0.3-0.3,0.4-0.5
			c0.2-0.2,0.5-0.4,0.8-0.6c0.5-0.3,1-0.6,1.6-0.5C19.1,11.1,19.5,11.4,19.6,11.8z"/>
		<path class="st2" d="M19.6,11.8c-0.1-0.4-0.6-0.7-1-0.8c-0.6-0.1-1.1,0.2-1.6,0.5c-0.3,0.2-0.5,0.4-0.8,0.6
			c-0.2,0.1-0.3,0.3-0.4,0.5c-0.3,0.3-0.6,0.7-0.8,1.2C15.1,13.8,15,13.9,15,14c0,0,0,0.1,0,0.1c0,0,0.1,0,0.1,0
			c0.1-0.1,0.2-0.1,0.3-0.2c0.5-0.3,1-0.4,1.5-0.5c0.3-0.1,0.7,0,1-0.1c0.3,0,0.5,0,0.8-0.1c0.4,0,0.8-0.2,1-0.5
			C19.7,12.5,19.7,12.1,19.6,11.8z M15.1,13.9c0,0,0-0.1,0.1-0.1c0.1-0.2,0.2-0.3,0.3-0.5c0.2-0.4,0.5-0.7,0.8-1
			c0.3-0.3,0.6-0.5,1-0.7c0.2-0.1,0.4-0.2,0.6-0.3c0.2,0,0.4-0.1,0.6-0.1c0.2,0,0.3,0,0.4,0.1c0.3,0.2,0.5,0.5,0.5,0.9
			c0,0.2-0.1,0.4-0.2,0.5c-0.1,0.1-0.2,0.3-0.4,0.3c-0.3,0.1-0.7,0.1-1,0.1c-0.4,0-0.8,0-1.2,0.1C16.1,13.4,15.6,13.6,15.1,13.9z"/>
		<path class="st4" d="M19.4,12.2c0,0,0-0.4-0.2-0.7c0,0-0.1-0.1-0.2-0.2c-0.1-0.1-0.3-0.1-0.4-0.1c-0.2,0-0.4,0-0.6,0.1
			c-0.2,0-0.4,0.2-0.6,0.3c-0.4,0.2-0.7,0.5-1,0.7c-0.3,0.3-0.6,0.6-0.8,1c-0.1,0.2-0.2,0.3-0.3,0.5c0,0,0,0.1-0.1,0.1
			c0.5-0.3,1-0.5,1.5-0.6c0.4-0.1,0.8-0.1,1.2-0.1c0.1,0,0.3,0,0.6,0c0.2,0,0.2,0,0.3-0.1C19.1,13,19.4,12.8,19.4,12.2z M18.4,12.7
			c-0.2,0.1-0.4,0-0.5-0.1c-0.2-0.1-0.2-0.4-0.1-0.5c0.2-0.2,0.4-0.3,0.6-0.3c0.2,0,0.4,0.2,0.5,0.4c0,0.1,0,0.2,0,0.2
			C18.7,12.5,18.6,12.7,18.4,12.7z"/>
		<path class="st3" d="M18.3,12.7c0.2,0,0.4-0.1,0.5-0.3c0.1-0.1,0.1-0.3,0-0.4c-0.1-0.2-0.2-0.3-0.4-0.3c-0.2,0-0.5,0.1-0.6,0.3
			c-0.1,0.2-0.1,0.4,0,0.6C18,12.7,18.1,12.7,18.3,12.7z"/>
	</g>
</g>
</svg>
